<svg xmlns="http://www.w3.org/2000/svg" viewBox="0 0 64 64" width="64" height="64">
  <rect x="4" y="20" width="56" height="28" rx="4" ry="4" fill="#333"/>
  <rect x="8" y="12" width="48" height="4" rx="2" ry="2" fill="#444"/>
  <rect x="7" y="26" width="8" height="7" rx="1" ry="1" fill="#ff4444"/>
  <rect x="17" y="26" width="8" height="7" rx="1" ry="1" fill="#44ff44"/>
  <rect x="27" y="26" width="8" height="7" rx="1" ry="1" fill="#ffaa00"/>
  <rect x="37" y="26" width="8" height="7" rx="1" ry="1" fill="#4488ff"/>
  <rect x="47" y="26" width="8" height="7" rx="1" ry="1" fill="#ff44ff"/>
  <rect x="7" y="36" width="8" height="7" rx="1" ry="1" fill="#ffaa44"/>
  <rect x="17" y="36" width="8" height="7" rx="1" ry="1" fill="#44ffaa"/>
  <rect x="27" y="36" width="8" height="7" rx="1" ry="1" fill="#88ff44"/>
  <rect x="37" y="36" width="8" height="7" rx="1" ry="1" fill="#44aaff"/>
  <rect x="47" y="36" width="8" height="7" rx="1" ry="1" fill="#ff88ff"/>
  <rect x="7" y="16" width="50" height="8" rx="1" ry="1" fill="#555" opacity="0.5"/>
</svg>
